<?xml version="1.0" encoding="UTF-8"?>
<svg width="71.736mm" height="51.256mm" version="1.1" viewBox="0 0 71.736 51.256" xmlns="http://www.w3.org/2000/svg" xmlns:xlink="http://www.w3.org/1999/xlink">
<defs>
<linearGradient id="c">
<stop stop-color="#247be2" offset="0"/>
<stop stop-color="#0d4eb5" offset=".66741"/>
<stop stop-color="#00279c" offset="1"/>
</linearGradient>
<linearGradient id="d">
<stop stop-color="#ffdf38" offset="0"/>
<stop stop-color="#ffa733" offset="1"/>
</linearGradient>
<linearGradient id="e">
<stop stop-color="#ffd233" offset=".21297"/>
<stop stop-color="#ffa533" offset="1"/>
</linearGradient>
<linearGradient id="f">
<stop stop-color="#fff" offset="0"/>
<stop stop-color="#e9efff" offset=".4235"/>
<stop stop-color="#c100ff" offset="1"/>
</linearGradient>
<linearGradient id="g">
<stop stop-color="#d31940" offset="0"/>
<stop stop-color="#ee38a6" offset="1"/>
</linearGradient>
<linearGradient id="a">
<stop stop-color="#fff" offset="0"/>
<stop stop-color="#fff" offset=".81913"/>
<stop stop-color="#c2c2c2" offset="1"/>
</linearGradient>
<linearGradient id="b">
<stop stop-color="#fff3e3" offset="0"/>
<stop stop-color="#ffeb33" offset=".35606"/>
<stop stop-color="#ffd933" offset=".64656"/>
<stop stop-color="#ffa533" offset="1"/>
</linearGradient>
<radialGradient id="q" cx="95.935" cy="101.58" r="18.63" gradientTransform="matrix(1.5442 -1.3276 1.4323 1.6357 -188.46 -.16525)" gradientUnits="userSpaceOnUse" xlink:href="#b"/>
<filter id="as" x="-.16303" y="-.14883" width="1.3261" height="1.2977" color-interpolation-filters="sRGB">
<feGaussianBlur stdDeviation="0.69149236"/>
</filter>
<radialGradient id="m" cx="77.436" cy="100.09" r="5.4545" gradientTransform="matrix(1.2427 -.871 .70561 1.1923 -83.274 -11.27)" gradientUnits="userSpaceOnUse" xlink:href="#a"/>
<filter id="aq" x="-.16303" y="-.14883" width="1.3261" height="1.2977" color-interpolation-filters="sRGB">
<feGaussianBlur stdDeviation="0.69149236"/>
</filter>
<radialGradient id="k" cx="77.436" cy="100.09" r="5.4545" gradientTransform="matrix(1.2427 -.871 .70561 1.1923 -65.628 -11.387)" gradientUnits="userSpaceOnUse" xlink:href="#a"/>
<filter id="am" x="-.02813" y="-.054983" width="1.0563" height="1.11" color-interpolation-filters="sRGB">
<feGaussianBlur stdDeviation="0.29360867"/>
</filter>
<radialGradient id="aa" cx="81.779" cy="118.92" r="12.525" gradientTransform="matrix(1.9596 -.025754 .012687 .94789 -70.753 -46.219)" gradientUnits="userSpaceOnUse" xlink:href="#g"/>
<linearGradient id="ac" x1="71.213" x2="70.982" y1="104.59" y2="109.02" gradientTransform="matrix(1.2831 0 0 1.2714 -13.832 -81.968)" gradientUnits="userSpaceOnUse" xlink:href="#f"/>
<radialGradient id="y" cx="51.251" cy="106.67" r="7.1964" gradientTransform="matrix(.58127 1.5577 -.60998 .22762 89.091 8.1751)" gradientUnits="userSpaceOnUse" xlink:href="#e"/>
<radialGradient id="w" cx="47.202" cy="117.85" r="4.4578" gradientTransform="matrix(1.0736 -.14106 .21804 1.8807 -28.958 -98.393)" gradientUnits="userSpaceOnUse" xlink:href="#d"/>
<filter id="ak" x="-.08774" y="-.06007" width="1.1755" height="1.1201" color-interpolation-filters="sRGB">
<feGaussianBlur stdDeviation="0.32593937"/>
</filter>
<radialGradient id="p" cx="95.935" cy="101.58" r="18.63" gradientTransform="matrix(1.5442 -1.3276 1.4323 1.6357 -187.77 58.235)" gradientUnits="userSpaceOnUse" xlink:href="#b"/>
<filter id="an" x="-.16303" y="-.14883" width="1.3261" height="1.2977" color-interpolation-filters="sRGB">
<feGaussianBlur stdDeviation="0.69149236"/>
</filter>
<radialGradient id="h" cx="77.436" cy="100.09" r="5.4545" gradientTransform="matrix(1.2427 -.871 .70561 1.1923 -82.683 51.098)" gradientUnits="userSpaceOnUse" xlink:href="#a"/>
<filter id="ap" x="-.16303" y="-.14883" width="1.3261" height="1.2977" color-interpolation-filters="sRGB">
<feGaussianBlur stdDeviation="0.69149236"/>
</filter>
<radialGradient id="j" cx="77.436" cy="100.09" r="5.4545" gradientTransform="matrix(1.2427 -.871 .70561 1.1923 -65.038 50.98)" gradientUnits="userSpaceOnUse" xlink:href="#a"/>
<radialGradient id="x" cx="53.575" cy="109.11" r="7.1964" gradientTransform="matrix(-.42358 1.7525 -.80627 -.20562 167.22 35.584)" gradientUnits="userSpaceOnUse" xlink:href="#e"/>
<filter id="aj" x="-.08774" y="-.06007" width="1.1755" height="1.1201" color-interpolation-filters="sRGB">
<feGaussianBlur stdDeviation="0.32593937"/>
</filter>
<radialGradient id="v" cx="46.899" cy="121.54" r="4.4578" gradientTransform="matrix(-.83058 -.16874 .33943 -1.6263 46.657 314.58)" gradientUnits="userSpaceOnUse" xlink:href="#d"/>
<filter id="ai" x="-.1627" y="-.32205" width="1.3257" height="1.6433" color-interpolation-filters="sRGB">
<feGaussianBlur stdDeviation="0.1992428"/>
</filter>
<filter id="ah" x="-.16268" y="-.32199" width="1.3256" height="1.6432" color-interpolation-filters="sRGB">
<feGaussianBlur stdDeviation="0.1992428"/>
</filter>
<filter id="ag" x="-.064029" y="-.4703" width="1.1281" height="1.9397" color-interpolation-filters="sRGB">
<feGaussianBlur stdDeviation="0.21681586"/>
</filter>
<radialGradient id="o" cx="95.935" cy="101.58" r="18.63" gradientTransform="matrix(1.5442 -1.3276 1.4323 1.6357 -187 132.79)" gradientUnits="userSpaceOnUse" xlink:href="#b"/>
<filter id="al" x="-.02813" y="-.054983" width="1.0563" height="1.11" color-interpolation-filters="sRGB">
<feGaussianBlur stdDeviation="0.29360867"/>
</filter>
<radialGradient id="z" cx="81.779" cy="118.92" r="12.525" gradientTransform="matrix(1.9596 -.025754 .012687 .94789 -68.365 83.937)" gradientUnits="userSpaceOnUse" xlink:href="#g"/>
<linearGradient id="ab" x1="71.213" x2="70.982" y1="104.59" y2="109.02" gradientTransform="matrix(1.2831 0 0 1.2714 -11.445 48.188)" gradientUnits="userSpaceOnUse" xlink:href="#f"/>
<filter id="af" x="-.12724" y="-.34975" width="1.2545" height="1.7" color-interpolation-filters="sRGB">
<feGaussianBlur stdDeviation="0.23259048"/>
</filter>
<filter id="ae" x="-.12755" y="-.35221" width="1.2551" height="1.7049" color-interpolation-filters="sRGB">
<feGaussianBlur stdDeviation="0.23259048"/>
</filter>
<radialGradient id="u" cx="49.867" cy="184.78" r="6.8666" gradientTransform="matrix(.4904 .41562 -.8386 1.1832 204.35 -54.168)" gradientUnits="userSpaceOnUse" xlink:href="#c"/>
<radialGradient id="t" cx="49.867" cy="184.78" r="6.8666" gradientTransform="matrix(-.4904 .41562 .8386 1.1832 -17.52 -54.01)" gradientUnits="userSpaceOnUse" xlink:href="#c"/>
<radialGradient id="n" cx="95.935" cy="101.58" r="18.63" gradientTransform="matrix(1.5442 -1.3276 1.4323 1.6357 -188.35 205.23)" gradientUnits="userSpaceOnUse" xlink:href="#b"/>
<filter id="ar" x="-.16303" y="-.14883" width="1.3261" height="1.2977" color-interpolation-filters="sRGB">
<feGaussianBlur stdDeviation="0.69149236"/>
</filter>
<radialGradient id="l" cx="77.436" cy="100.09" r="5.4545" gradientTransform="matrix(1.2427 -.871 .70561 1.1923 -83.167 194.12)" gradientUnits="userSpaceOnUse" xlink:href="#a"/>
<filter id="ao" x="-.16303" y="-.14883" width="1.3261" height="1.2977" color-interpolation-filters="sRGB">
<feGaussianBlur stdDeviation="0.69149236"/>
</filter>
<radialGradient id="i" cx="77.436" cy="100.09" r="5.4545" gradientTransform="matrix(1.2427 -.871 .70561 1.1923 -65.521 194.01)" gradientUnits="userSpaceOnUse" xlink:href="#a"/>
<radialGradient id="s" cx="91.246" cy="270.3" r="4.8234" gradientTransform="matrix(2.8876 -.018756 .015809 2.6266 -176.41 -437.15)" gradientUnits="userSpaceOnUse">
<stop stop-color="#da2141" offset="0"/>
<stop stop-color="#ee38a6" offset="1"/>
</radialGradient>
<filter id="ad" x="-.048485" y="-.031827" width="1.097" height="1.0637" color-interpolation-filters="sRGB">
<feGaussianBlur stdDeviation="0.19488421"/>
</filter>
<radialGradient id="r" cx="92.447" cy="268.26" r="4.8234" gradientTransform="matrix(1.7902 -.46672 .66582 2.5571 -251.79 -376.65)" gradientUnits="userSpaceOnUse">
<stop stop-color="#da2141" stop-opacity="0" offset="0"/>
<stop stop-color="#dc243c" stop-opacity="0" offset=".50776"/>
<stop stop-color="#df2837" offset="1"/>
</radialGradient>
</defs>
<g transform="translate(-45.458 -28.046)">
<rect x="67.266" y="29.424" width="47.806" height="45.904" rx="20.173" ry="21.003" fill="url(#q)" style="paint-order:markers stroke fill"/>
<path transform="matrix(1.2831 0 0 1.2714 -13.832 -81.968)" d="m79.574 97.889c0 1.7634-0.74349 3.336-1.905 4.3605-1.7277 1.3197-3.7339 1.5889-5.4984 0.6197-1.648-0.92521-2.7762-2.808-2.7762-4.9802 0-3.0871 2.2788-5.5897 5.0898-5.5897 2.811 0 5.0898 2.5026 5.0898 5.5897z" fill="#555" fill-rule="evenodd" filter="url(#as)" stroke-width="0" style="paint-order:markers stroke fill"/>
<path transform="matrix(1.3011 0 0 1.2941 -15.227 -84.592)" d="m94.063 106.3c0.74241 1.4877-1.5004 12.236-11.978 12.246-10.943 0.0104-13.562-10.573-12.827-11.975 0.73312-1.4146 0.92805-0.64618 11.5-0.51196 10.572 0.13421 12.793-0.84775 13.305 0.2414z" fill="#ff6f33" filter="url(#am)" stroke-width="0" style="mix-blend-mode:normal;paint-order:markers stroke fill"/>
<path d="m88.387 42.027c0 2.2419-0.95394 4.2414-2.4442 5.5439-2.2167 1.6779-4.7908 2.0201-7.0547 0.78789-2.1144-1.1763-3.562-3.5701-3.562-6.3318 1.3e-5 -3.9249 2.9238-7.1067 6.5305-7.1067 3.6067 0 6.5304 3.1818 6.5304 7.1067z" fill="url(#m)" stroke-width="0" style="paint-order:markers stroke fill"/>
<ellipse cx="82.13" cy="41.888" rx="3.444" ry="3.9609" style="paint-order:markers stroke fill"/>
<path transform="matrix(1.2831 0 0 1.2714 -13.832 -81.968)" d="m93.327 97.797c0 1.7634-0.74349 3.336-1.905 4.3605-1.7277 1.3197-3.7339 1.5889-5.4984 0.6197-1.648-0.92521-2.7762-2.808-2.7762-4.9802 0-3.0871 2.2788-5.5897 5.0898-5.5897 2.811 0 5.0898 2.5026 5.0898 5.5897z" fill="#555" fill-rule="evenodd" filter="url(#aq)" stroke-width="0" style="paint-order:markers stroke fill"/>
<path d="m106.03 41.91c0 2.2419-0.95394 4.2414-2.4442 5.5439-2.2167 1.6779-4.7908 2.0201-7.0547 0.78789-2.1144-1.1763-3.562-3.5701-3.562-6.3318 1.3e-5 -3.9249 2.9238-7.1067 6.5305-7.1067 3.6067 0 6.5304 3.1818 6.5304 7.1067z" fill="url(#k)" stroke-width="0" style="paint-order:markers stroke fill"/>
<ellipse cx="99.428" cy="41.771" rx="3.444" ry="3.9609" style="paint-order:markers stroke fill"/>
<path d="m107.14 52.654c0.95254 1.8915-1.925 15.557-15.368 15.569-14.041 0.01323-17.401-13.442-16.458-15.225 0.26037-0.49784 0.60754-1.2328 1.6351-1.0126 0.99397 0.21303 3.3103 0.23826 13.12 0.36166 11.448 0.144 14.187-0.27914 15.998-0.44808 0.56981-0.05311 0.97011 0.5389 1.0725 0.755z" fill="url(#aa)" stroke-width="0" style="paint-order:markers stroke fill"/>
<path d="m77.14 51.922c10.054 0.57001 19.545 0.54471 28.678 0 0.45822-0.0273 0.82919 0.21021 0.82919 0.47132v1.0877c0 0.26111-0.37173 0.43064-0.82919 0.47131-11.429 1.0161-20.641 0.82622-28.678 0-0.45687-0.04691-0.8292-0.2102-0.8292-0.47131v-1.0877c0-0.26111 0.37092-0.49731 0.8292-0.47132z" fill="url(#ac)" stroke-width="0" style="paint-order:markers stroke fill"/>
<g transform="matrix(1.2831 0 0 1.2714 -6.3068 -84.075)" stroke-width="0">
<path d="m50.948 105.39c-1.0925 0.23184-2.2913 2.2651-1.4917 4.7182 0.2913 1.096 0.70165 1.2189 0.12607 2.3952-0.58642 0.77831-2.5957 0.39455-3.4435 0.82719-1.086 0.0756-2.7321 1.7903-2.8997 3.4439-0.46243 3.2824 0.40455 5.3655 2.2245 7.4463 2.75 1.4646 6.1056 1.3866 8.7234 0.84989 2.6474-1.0835 3.3538-2.7178 3.1945-6.1171-0.12275-2.6194 0.36743-4.6942-2.8241-6.8984-1.5839-0.79265-1.6753-2.2241-2.1896-3.8332-0.36376-1.9448 0.27771-3.1767-1.4199-2.832z" fill="url(#y)" style="paint-order:markers stroke fill"/>
<path transform="matrix(.78033 0 0 .92452 12.229 8.1458)" d="m44.175 112.47c-0.63351-0.0237-1.885 0.43658-1.885 1.3723v0.77816c0 0.49609 0.21788 0.92469 0.5381 1.1381-0.30901 0.19769-0.52459 0.65841-0.52459 1.198v0.79002c0 0.57522 0.24532 1.0602 0.58733 1.2331-0.33224 0.20815-0.55982 0.64472-0.55982 1.1521v0.77869c0 0.50363 0.22436 0.93729 0.55258 1.1473-0.29058 0.17747-0.49756 0.6492-0.49756 1.2066v0.77869c0 0.71035 1.0753 1.2752 1.4896 1.3272 2.4317 0.30532 3.8774-0.0301 5.7126-0.3001 0.41324-0.0608 1.6174-0.84598 1.6174-1.5563v-0.77869c0-0.5964-0.23702-1.0949-0.55982-1.2395 0.30189-0.2203 0.5048-0.63567 0.5048-1.1143v-0.77869c0-0.52032-0.2398-0.43665-0.58588-0.63805 0.32679-0.18503 0.55837-0.48057 0.55837-1.0394v-0.79002c0-0.54773-0.22255-1.0135-0.53907-1.2061 0.31339-0.21613 0.52507-0.64037 0.52507-1.13v-0.77816c0-0.71035-1.2884-1.2716-1.8429-1.2804-1.9854-0.0314-4.3558-0.24294-5.0912-0.27047z" fill="#ff9f33" fill-rule="evenodd" filter="url(#ak)" style="mix-blend-mode:normal;paint-order:markers stroke fill"/>
<path d="m42.983 113.17v0.77816c0 0.49609-0.02074 0.92469 0.28006 1.1381-0.29026 0.19769-0.89847 0.65841-0.89847 1.198v0.79002c0 0.57522 0.23044 1.0602 0.55169 1.2331-0.31208 0.20815-0.38015 0.56503-0.38015 1.0724v0.77869c0 0.50363 0.62852 0.81413 0.93683 1.0241-0.27295 0.17747-0.30363 0.41056-0.28182 0.96755l0.03984 1.0178c0.02779 0.70981 1.5519 1.3071 1.9411 1.3591 2.2842 0.30532 2.1247 0.14087 3.8485-0.12918 0.38817-0.0608 1.5192-0.84598 1.5192-1.5563v-0.77869c0-0.5964-0.22264-1.0949-0.52585-1.2395 0.41108-0.0211 1.0935-0.4292 1.1197-0.90715l0.05578-1.0178c0.02848-0.51954-0.30494-0.79525-0.77346-0.86118 0.30696-0.18503 0.52449-0.48057 0.52449-1.0394v-0.79002c0-0.54773-0.6553-0.98165-0.95262-1.1742 0.29437-0.21613 0.71634-0.41724 0.71634-0.90686v-0.77816c0-0.71035-1.2102-1.2716-1.7311-1.2804-1.4026-0.0236-2.5814-0.39321-3.9612-0.26134-0.99562 0.0878-1.8466 0.41495-2.0289 1.3633z" fill="url(#w)" fill-rule="evenodd" style="paint-order:markers stroke fill"/>
</g>
<rect x="67.947" y="87.825" width="47.806" height="45.904" rx="20.173" ry="21.003" fill="url(#p)" style="paint-order:markers stroke fill"/>
<path transform="matrix(1.2831 0 0 1.2714 -13.241 -19.6)" d="m79.574 97.889c0 1.7634-0.74349 3.336-1.905 4.3605-1.7277 1.3197-3.7339 1.5889-5.4984 0.6197-1.648-0.92521-2.7762-2.808-2.7762-4.9802 0-3.0871 2.2788-5.5897 5.0898-5.5897 2.811 0 5.0898 2.5026 5.0898 5.5897z" fill="#555" fill-rule="evenodd" filter="url(#an)" stroke-width="0" style="paint-order:markers stroke fill"/>
<path d="m88.977 104.39c0 2.2419-0.95394 4.2414-2.4442 5.5439-2.2167 1.6779-4.7908 2.0201-7.0547 0.78789-2.1144-1.1763-3.562-3.5701-3.562-6.3318 1.3e-5 -3.9249 2.9238-7.1067 6.5305-7.1067 3.6067 0 6.5304 3.1818 6.5304 7.1067z" fill="url(#h)" stroke-width="0" style="paint-order:markers stroke fill"/>
<ellipse cx="82.72" cy="104.26" rx="3.444" ry="3.9609" style="paint-order:markers stroke fill"/>
<path transform="matrix(1.2831 0 0 1.2714 -13.241 -19.6)" d="m93.327 97.797c0 1.7634-0.74349 3.336-1.905 4.3605-1.7277 1.3197-3.7339 1.5889-5.4984 0.6197-1.648-0.92521-2.7762-2.808-2.7762-4.9802 0-3.0871 2.2788-5.5897 5.0898-5.5897 2.811 0 5.0898 2.5026 5.0898 5.5897z" fill="#555" fill-rule="evenodd" filter="url(#ap)" stroke-width="0" style="paint-order:markers stroke fill"/>
<path d="m106.62 104.28c0 2.2419-0.95395 4.2414-2.4442 5.5439-2.2167 1.6779-4.7908 2.0201-7.0547 0.78789-2.1144-1.1763-3.562-3.5701-3.562-6.3318 1e-5 -3.9249 2.9238-7.1067 6.5304-7.1067 3.6067 0 6.5304 3.1818 6.5304 7.1067z" fill="url(#j)" stroke-width="0" style="paint-order:markers stroke fill"/>
<ellipse cx="100.02" cy="104.14" rx="3.444" ry="3.9609" style="paint-order:markers stroke fill"/>
<g transform="matrix(1.2831 0 0 -1.2714 -8.511 259.79)" stroke-width="0">
<path d="m52.143 95.041c-1.0925 0.23184-2.2913 2.2651-1.4917 4.7182 0.2913 1.096 0.70165 1.2189 0.12607 2.3952-0.58642 0.77831-2.5957 0.39455-3.4435 0.82719-1.086 0.0756-2.7321 1.7903-2.8997 3.4439-0.46243 3.2824 0.40455 5.3655 2.2245 7.4463 2.75 1.4646 6.1056 1.3866 8.7234 0.84989 2.6474-1.0835 3.3538-2.7178 3.1945-6.1171-0.12275-2.6194 0.36743-4.6942-2.8241-6.8984-1.5839-0.79265-1.6753-2.2241-2.1896-3.8332-0.36376-1.9448 0.27771-3.1767-1.4199-2.832z" fill="url(#x)" style="paint-order:markers stroke fill"/>
<path transform="matrix(.78033 0 0 .92452 13.423 -2.2074)" d="m44.175 112.47c-0.63351-0.0237-1.885 0.43658-1.885 1.3723v0.77816c0 0.49609 0.21788 0.92469 0.5381 1.1381-0.30901 0.19769-0.52459 0.65841-0.52459 1.198v0.79002c0 0.57522 0.24532 1.0602 0.58733 1.2331-0.33224 0.20815-0.55982 0.64472-0.55982 1.1521v0.77869c0 0.50363 0.22436 0.93729 0.55258 1.1473-0.29058 0.17747-0.49756 0.6492-0.49756 1.2066v0.77869c0 0.71035 1.0753 1.2752 1.4896 1.3272 2.4317 0.30532 3.8774-0.0301 5.7126-0.3001 0.41324-0.0608 1.6174-0.84598 1.6174-1.5563v-0.77869c0-0.5964-0.23702-1.0949-0.55982-1.2395 0.30189-0.2203 0.5048-0.63567 0.5048-1.1143v-0.77869c0-0.52032-0.2398-0.43665-0.58588-0.63805 0.32679-0.18503 0.55837-0.48057 0.55837-1.0394v-0.79002c0-0.54773-0.22255-1.0135-0.53907-1.2061 0.31339-0.21613 0.52507-0.64037 0.52507-1.13v-0.77816c0-0.71035-1.2884-1.2716-1.8429-1.2804-1.9854-0.0314-4.3558-0.24294-5.0912-0.27047z" fill="#ff9f33" fill-rule="evenodd" filter="url(#aj)" style="mix-blend-mode:normal;paint-order:markers stroke fill"/>
<path d="m44.178 102.81v0.77816c0 0.49609-0.02074 0.92469 0.28006 1.1381-0.29026 0.19769-0.89847 0.65841-0.89847 1.198v0.79002c0 0.57522 0.23044 1.0602 0.55169 1.2331-0.31208 0.20815-0.38015 0.56503-0.38015 1.0724v0.77869c0 0.50363 0.62852 0.81413 0.93683 1.0241-0.27295 0.17747-0.30363 0.41056-0.28182 0.96755l0.03984 1.0178c0.02779 0.70981 1.5519 1.3071 1.9411 1.3591 2.2842 0.30532 2.1247 0.14087 3.8485-0.12918 0.38817-0.0608 1.5192-0.84598 1.5192-1.5563v-0.77869c0-0.5964-0.22264-1.0949-0.52585-1.2395 0.41108-0.0211 1.0935-0.4292 1.1197-0.90715l0.05578-1.0178c0.02848-0.51954-0.30494-0.79525-0.77346-0.86118 0.30696-0.18503 0.52449-0.48057 0.52449-1.0394v-0.79002c0-0.54773-0.6553-0.98165-0.95262-1.1742 0.29437-0.21613 0.71634-0.41724 0.71634-0.90686v-0.77816c0-0.71035-1.2102-1.2716-1.7311-1.2804-1.4026-0.0236-2.5814-0.39321-3.9612-0.26134-0.99562 0.0878-1.8466 0.41495-2.0289 1.3633z" fill="url(#v)" fill-rule="evenodd" style="paint-order:markers stroke fill"/>
</g>
<path d="m75.378 100.57c1.6395-0.3379 3.7056-1.0294 6.2114-2.5005 0.20773-0.12196 0.42402-0.25249 0.64885-0.39237 0.80941-0.50766 1.4429-0.96491 1.8742-1.2906a0.22539 0.22539 90 0 0-0.27167-0.35973c-0.42355 0.31987-1.0462 0.76929-1.8414 1.268-0.22084 0.13739-0.43382 0.26593-0.63825 0.38595-2.4637 1.4464-4.4835 2.1199-6.0742 2.4478a0.22539 0.22539 90 0 0 0.09099 0.4415z" fill="#252525" filter="url(#ai)" stroke="#252525" stroke-linecap="round" stroke-linejoin="round" stroke-width="2" style="mix-blend-mode:normal;paint-order:markers stroke fill"/>
<path d="m75.575 100.21c1.606-0.33058 3.6319-1.0034 6.0938-2.4317 0.20414-0.11843 0.41674-0.24519 0.63779-0.38103 0.86628-0.53649 1.543-1.0235 2.0029-1.3708a0.22539 0.22539 90 0 0-0.27166-0.35974c-0.4517 0.34111-1.1168 0.81977-1.9679 1.3469-0.21712 0.13342-0.42644 0.25823-0.62732 0.37476-2.4202 1.4041-4.4005 2.0594-5.9585 2.3801a0.22539 0.22539 90 0 0 0.09089 0.44153z" fill="#252525" stroke="#252525" stroke-linecap="round" stroke-linejoin="round" stroke-width="2" style="paint-order:markers stroke fill"/>
<path transform="matrix(-1 0 0 1 208.08 7.7085)" d="m100.59 92.864c1.6395-0.3379 3.7056-1.0294 6.2114-2.5005 0.20773-0.12196 0.42402-0.25249 0.64885-0.39237 0.80942-0.50766 1.4429-0.9649 1.8742-1.2906a0.22539 0.22539 90 0 0-0.27168-0.35973c-0.42355 0.31988-1.0462 0.76928-1.8414 1.268-0.22084 0.13739-0.43382 0.26593-0.63825 0.38595-2.4637 1.4464-4.4835 2.1199-6.0742 2.4478a0.22539 0.22539 90 0 0 0.091 0.44151z" fill="#252525" filter="url(#ah)" stroke="#252525" stroke-linecap="round" stroke-linejoin="round" stroke-width="2" style="paint-order:markers stroke fill"/>
<path d="m107.38 99.77c-1.558-0.3207-3.5383-0.97602-5.9585-2.3801-0.20088-0.11654-0.4102-0.24134-0.62798-0.37517-0.85046-0.5267-1.5156-1.0053-1.9673-1.3465a0.22539 0.22539 90 0 0-0.27166 0.35974c0.45991 0.34731 1.1366 0.8343 2.0023 1.3704 0.22172 0.13625 0.43431 0.26301 0.63845 0.38144 2.4619 1.4283 4.4878 2.1011 6.0938 2.4317a0.22539 0.22539 90 0 0 0.0909-0.44153z" fill="#252525" stroke="#252525" stroke-linecap="round" stroke-linejoin="round" stroke-width="2" style="paint-order:markers stroke fill"/>
<path d="m80.104 119.39c0.42714-0.30547 1.0907-0.69564 2.1743-1.0224 0.61003-0.18393 1.2457-0.31742 1.9121-0.43673 0.15707-0.0281 0.31846-0.056 0.49446-0.0856 3.349-0.48095 7.2144-0.48979 11.583 0.22771 3.4401 0.60652 5.4669 1.3952 6.9515 2.1883a0.22539 0.22539 90 0 0 0.2124-0.39762c-1.5323-0.81852-3.6055-1.621-7.0883-2.235-4.414-0.72499-8.3256-0.71737-11.728-0.22868-0.1824 0.0307-0.34536 0.0588-0.50437 0.0873-0.6736 0.12061-1.3287 0.25768-1.9628 0.44887-1.1342 0.34196-1.8419 0.75513-2.3064 1.0873a0.22539 0.22539 90 0 0 0.26223 0.36666z" fill="#252525" filter="url(#ag)" stroke="#252525" stroke-linecap="round" stroke-linejoin="round" stroke-width="2" style="mix-blend-mode:normal;paint-order:markers stroke fill"/>
<path d="m80.232 119.02c0.71119-0.396 1.8451-0.92908 3.5612-1.3255 0.97077-0.22424 1.9798-0.37218 3.0256-0.4742 0.24522-0.0239 0.5036-0.0464 0.77876-0.0675 3.8543-0.23974 8.4794 0.11404 13.295 1.7155 1.3125 0.44518 2.2703 0.87459 2.8454 1.1491a0.22539 0.22539 90 0 0 0.19422-0.4068c-0.58689-0.28019-1.5615-0.71701-2.8961-1.1697-4.8801-1.6228-9.564-1.9809-13.47-1.7379-0.28132 0.0215-0.54282 0.0443-0.79133 0.0685-1.0594 0.10334-2.0885 0.25385-3.0832 0.48363-1.7629 0.40722-2.9363 0.95727-3.6791 1.3709a0.22539 0.22539 90 0 0 0.2193 0.39384z" fill="#252525" stroke="#252525" stroke-linecap="round" stroke-linejoin="round" stroke-width="2" style="paint-order:markers stroke fill"/>
<rect x="68.721" y="162.38" width="47.806" height="45.904" rx="20.173" ry="21.003" fill="url(#o)" style="paint-order:markers stroke fill"/>
<path transform="matrix(1.3011 0 0 1.2941 -12.839 45.564)" d="m94.063 106.3c0.74241 1.4877-1.5004 12.236-11.978 12.246-10.943 0.0104-13.562-10.573-12.827-11.975 0.73312-1.4146 0.92805-0.64618 11.5-0.51196 10.572 0.13421 12.793-0.84775 13.305 0.2414z" fill="#ff6f33" filter="url(#al)" stroke-width="0" style="mix-blend-mode:normal;paint-order:markers stroke fill"/>
<path d="m109.53 182.81c0.95254 1.8915-1.925 15.557-15.368 15.569-14.041 0.0132-17.401-13.442-16.458-15.225 0.26037-0.49784 0.60754-1.2328 1.6351-1.0126 0.99397 0.21302 3.3103 0.23826 13.12 0.36166 11.448 0.144 14.187-0.27914 15.998-0.44809 0.56981-0.0531 0.97011 0.5389 1.0725 0.75501z" fill="url(#z)" stroke-width="0" style="paint-order:markers stroke fill"/>
<path d="m79.527 182.08c10.054 0.57002 19.545 0.54471 28.678 0 0.45822-0.0273 0.82919 0.21022 0.82919 0.47132v1.0877c0 0.2611-0.37173 0.43064-0.82919 0.47131-11.429 1.0161-20.641 0.82622-28.678 0-0.45687-0.0469-0.8292-0.21021-0.8292-0.47131v-1.0877c0-0.2611 0.37091-0.49731 0.8292-0.47132z" fill="url(#ab)" stroke-width="0" style="paint-order:markers stroke fill"/>
<path transform="matrix(.90946 0 0 1.014 8.2228 -1.5362)" d="m77.275 176.18c0.14144-0.4432 0.45658-1.2274 1.1625-2.0062 0.40607-0.44797 0.89604-0.84232 1.4551-1.144 0.13105-0.0707 0.27389-0.14063 0.42819-0.20655 0.89352-0.38795 2.0183-0.63355 3.2748-0.54098 1.0978 0.0809 2.1964 0.41605 3.1536 1.0217 0.49114 0.31362 0.89826 0.69125 1.2134 1.0899 0.44764 0.56623 0.64765 1.0939 0.74368 1.4344a0.19962 0.19962 90 0 0 0.38426-0.10836c-0.10663-0.37813-0.32701-0.95671-0.81474-1.5737-0.34254-0.43328-0.78282-0.84105-1.3125-1.1792-1.0179-0.64406-2.1808-0.99767-3.3384-1.083-1.3255-0.0977-2.5146 0.16111-3.4621 0.57246-0.16513 0.0705-0.31891 0.14582-0.45985 0.22186-0.60108 0.32432-1.1265 0.7475-1.5613 1.2272-0.75617 0.83418-1.0946 1.6752-1.247 2.1529a0.19962 0.19962 90 0 0 0.38034 0.12138z" fill="#252525" filter="url(#af)" stroke="#252525" stroke-linecap="round" stroke-linejoin="round" stroke-width="2" style="mix-blend-mode:normal;paint-order:markers stroke fill"/>
<path d="m78.726 176.59c0.04444-0.18017 0.16735-0.65013 0.45212-1.1984 0.09987-0.19228 0.24773-0.44897 0.45536-0.7279 0.347-0.46618 0.86673-1.0008 1.5948-1.3903 1.0778-0.59033 2.411-0.81928 3.7547-0.59374 0.63775 0.10705 1.2581 0.31423 1.8258 0.61732 0.57406 0.30651 1.0848 0.70599 1.5049 1.1875 0.65967 0.75718 0.92076 1.5438 1.0266 1.952a0.21645 0.21645 90 0 0 0.41903-0.1087c-0.11532-0.44452-0.39954-1.3016-1.1194-2.1278-0.45657-0.52338-1.0095-0.95507-1.6273-1.2849-0.61066-0.32605-1.2759-0.54788-1.958-0.66237-1.4349-0.24085-2.8672 2e-3 -4.0324 0.63997-0.79571 0.42564-1.3612 1.0089-1.736 1.5125-0.22468 0.30184-0.38448 0.57932-0.49227 0.78685-0.30742 0.5919-0.44016 1.0993-0.48825 1.2943a0.21645 0.21645 90 0 0 0.42031 0.10368z" fill="#252525" stroke="#252525" stroke-linecap="round" stroke-linejoin="round" stroke-width="1.9207" style="paint-order:markers stroke fill"/>
<path transform="matrix(-.90946 0 0 1.014 194.2 -.81493)" d="m95.891 175.61c0.14186-0.44455 0.45791-1.231 1.1658-2.0119 0.40719-0.44921 0.89853-0.84468 1.4593-1.1472 0.13143-0.0709 0.2747-0.14104 0.42947-0.20715 0.89557-0.38884 2.0228-0.63496 3.282-0.54219 1.1001 0.0811 2.2012 0.41694 3.1608 1.0241 0.49266 0.3146 0.90108 0.6934 1.2173 1.0934 0.4492 0.56819 0.65 1.0978 0.74644 1.4398a0.1841 0.1841 90 0 0 0.35438-0.0999c-0.10622-0.37666-0.32581-0.95327-0.81198-1.5682-0.34148-0.43194-0.78047-0.83853-1.3086-1.1758-1.0155-0.64255-2.1759-0.99544-3.3312-1.0806-1.3228-0.0975-2.5095 0.1608-3.4547 0.57122-0.16475 0.0704-0.31811 0.14545-0.45866 0.22129-0.59945 0.32343-1.1235 0.74549-1.5572 1.224-0.75422 0.83203-1.0917 1.6708-1.2438 2.1472a0.1841 0.1841 90 0 0 0.35077 0.11194z" fill="#252525" filter="url(#ae)" stroke="#252525" stroke-linecap="round" stroke-linejoin="round" stroke-width="2" style="mix-blend-mode:normal;paint-order:markers stroke fill"/>
<path d="m107.89 176.54c-0.0481-0.19494-0.18082-0.70236-0.48825-1.2943-0.10779-0.20754-0.26759-0.48501-0.49227-0.78686-0.37485-0.50359-0.94031-1.0868-1.7379-1.5135-1.1634-0.63722-2.5956-0.8798-4.0306-0.63894-0.68208 0.11448-1.3474 0.33631-1.958 0.66236-0.6178 0.32986-1.1707 0.76155-1.6272 1.2848-0.7199 0.8263-1.0041 1.6834-1.1194 2.1279a0.21645 0.21645 90 0 0 0.41903 0.1087c0.10588-0.40814 0.36697-1.1948 1.0267-1.9521 0.41997-0.48143 0.93071-0.88092 1.5048-1.1874 0.56765-0.30308 1.188-0.51026 1.8258-0.61731 1.3437-0.22554 2.6769 3e-3 3.7528 0.59271 0.72998 0.39051 1.2497 0.92512 1.5967 1.3913 0.20763 0.27893 0.35549 0.53563 0.45536 0.72791 0.28476 0.54827 0.40768 1.0182 0.45212 1.1984a0.21645 0.21645 90 0 0 0.4203-0.10368z" fill="#252525" stroke="#252525" stroke-linecap="round" stroke-linejoin="round" stroke-width="1.9207" style="paint-order:markers stroke fill"/>
<path d="m76.49 178.08c-0.63366-0.41582-2.0203 2.206-4.6997 3.8234-3.7215 2.2465-4.4304 5.6783-2.0586 7.5179 3.2259 1.8513 5.4652-0.63941 5.9397-5.2365 0.1625-3.4124 1.3771-5.7056 0.81852-6.1048z" fill="url(#u)" fill-rule="evenodd" stroke-width="0" style="paint-order:markers stroke fill"/>
<path d="m110.35 178.24c0.63366-0.41582 2.0203 2.206 4.6997 3.8234 3.7215 2.2465 4.4304 5.6783 2.0586 7.5179-3.2259 1.8513-5.4652-0.63941-5.9397-5.2365-0.1625-3.4124-1.3771-5.7056-0.81853-6.1048z" fill="url(#t)" fill-rule="evenodd" stroke-width="0" style="paint-order:markers stroke fill"/>
<rect x="67.373" y="234.82" width="47.806" height="45.904" rx="20.173" ry="21.003" fill="url(#n)" style="paint-order:markers stroke fill"/>
<path transform="matrix(1.2831 0 0 1.2714 -13.725 123.43)" d="m79.574 97.889c0 1.7634-0.74349 3.336-1.905 4.3605-1.7277 1.3197-3.7339 1.5889-5.4984 0.6197-1.648-0.92521-2.7762-2.808-2.7762-4.9802 0-3.0871 2.2788-5.5897 5.0898-5.5897 2.811 0 5.0898 2.5026 5.0898 5.5897z" fill="#555" fill-rule="evenodd" filter="url(#ar)" stroke-width="0" style="paint-order:markers stroke fill"/>
<path d="m88.494 247.42c0 2.2419-0.95394 4.2414-2.4442 5.5439-2.2167 1.6779-4.7908 2.0201-7.0547 0.78789-2.1144-1.1763-3.562-3.5701-3.562-6.3318 1.3e-5 -3.9249 2.9238-7.1067 6.5305-7.1067 3.6067 0 6.5304 3.1818 6.5304 7.1067z" fill="url(#l)" stroke-width="0" style="paint-order:markers stroke fill"/>
<ellipse cx="83.469" cy="247.95" rx="2.4005" ry="2.6225" style="paint-order:markers stroke fill"/>
<path transform="matrix(1.2831 0 0 1.2714 -13.725 123.43)" d="m93.327 97.797c0 1.7634-0.74349 3.336-1.905 4.3605-1.7277 1.3197-3.7339 1.5889-5.4984 0.6197-1.648-0.92521-2.7762-2.808-2.7762-4.9802 0-3.0871 2.2788-5.5897 5.0898-5.5897 2.811 0 5.0898 2.5026 5.0898 5.5897z" fill="#555" fill-rule="evenodd" filter="url(#ao)" stroke-width="0" style="paint-order:markers stroke fill"/>
<path d="m106.14 247.3c0 2.2419-0.95394 4.2414-2.4442 5.5439-2.2167 1.6779-4.7908 2.0201-7.0547 0.78789-2.1144-1.1763-3.562-3.5701-3.562-6.3318 1.3e-5 -3.9249 2.9238-7.1067 6.5305-7.1067 3.6067 0 6.5304 3.1818 6.5304 7.1067z" fill="url(#i)" stroke-width="0" style="paint-order:markers stroke fill"/>
<ellipse cx="98.508" cy="247.94" rx="2.4005" ry="2.6225" style="paint-order:markers stroke fill"/>
<rect transform="matrix(.96434 0 0 1.0111 2.9786 -3.1517)" x="86.278" y="260.03" width="9.6468" height="14.696" rx="4.1923" ry="6.2659" fill="#ff5e33" fill-rule="evenodd" filter="url(#ad)" stroke-width="0" style="mix-blend-mode:normal;paint-order:markers stroke fill"/>
<rect x="86.525" y="259.53" width="9.2862" height="14.696" rx="4.0356" ry="6.2659" fill="url(#s)" fill-rule="evenodd" stroke-width="0" style="paint-order:markers stroke fill"/>
<rect x="86.525" y="259.53" width="9.2862" height="14.696" rx="4.0356" ry="6.2659" fill="url(#r)" fill-rule="evenodd" stroke-width="0" style="paint-order:markers stroke fill"/>
</g>
</svg>
