<?xml version="1.0" encoding="UTF-8"?>
<svg width="68.375mm" height="51.201mm" version="1.1" viewBox="0 0 68.375 51.201" xmlns="http://www.w3.org/2000/svg" xmlns:xlink="http://www.w3.org/1999/xlink">
<defs>
<linearGradient id="a">
<stop stop-color="#fff" offset="0"/>
<stop stop-color="#fff" offset=".81913"/>
<stop stop-color="#c2c2c2" offset="1"/>
</linearGradient>
<radialGradient id="d" cx="95.935" cy="101.58" r="18.63" gradientTransform="matrix(1.5442 -1.3276 1.4323 1.6357 -187.77 58.235)" gradientUnits="userSpaceOnUse">
<stop stop-color="#fff3e3" offset="0"/>
<stop stop-color="#ffeb33" offset=".35606"/>
<stop stop-color="#ffd933" offset=".64656"/>
<stop stop-color="#ffa533" offset="1"/>
</radialGradient>
<filter id="k" x="-.16303" y="-.14883" width="1.3261" height="1.2977" color-interpolation-filters="sRGB">
<feGaussianBlur stdDeviation="0.69149236"/>
</filter>
<radialGradient id="b" cx="77.436" cy="100.09" r="5.4545" gradientTransform="matrix(1.2427 -.871 .70561 1.1923 -82.683 51.098)" gradientUnits="userSpaceOnUse" xlink:href="#a"/>
<filter id="l" x="-.16303" y="-.14883" width="1.3261" height="1.2977" color-interpolation-filters="sRGB">
<feGaussianBlur stdDeviation="0.69149236"/>
</filter>
<radialGradient id="c" cx="77.436" cy="100.09" r="5.4545" gradientTransform="matrix(1.2427 -.871 .70561 1.1923 -65.038 50.98)" gradientUnits="userSpaceOnUse" xlink:href="#a"/>
<radialGradient id="f" cx="53.575" cy="109.11" r="7.1964" gradientTransform="matrix(-.42358 1.7525 -.80627 -.20562 167.22 35.584)" gradientUnits="userSpaceOnUse">
<stop stop-color="#ffd233" offset=".21297"/>
<stop stop-color="#ffa533" offset="1"/>
</radialGradient>
<filter id="j" x="-.08774" y="-.06007" width="1.1755" height="1.1201" color-interpolation-filters="sRGB">
<feGaussianBlur stdDeviation="0.32593937"/>
</filter>
<radialGradient id="e" cx="46.899" cy="121.54" r="4.4578" gradientTransform="matrix(-.83058 -.16874 .33943 -1.6263 46.657 314.58)" gradientUnits="userSpaceOnUse">
<stop stop-color="#ffdf38" offset="0"/>
<stop stop-color="#ffa733" offset="1"/>
</radialGradient>
<filter id="i" x="-.16268" y="-.32199" width="1.3256" height="1.6432" color-interpolation-filters="sRGB">
<feGaussianBlur stdDeviation="0.1992428"/>
</filter>
<filter id="h" x="-.16268" y="-.32199" width="1.3256" height="1.6432" color-interpolation-filters="sRGB">
<feGaussianBlur stdDeviation="0.1992428"/>
</filter>
<filter id="g" x="-.064029" y="-.4703" width="1.1281" height="1.9397" color-interpolation-filters="sRGB">
<feGaussianBlur stdDeviation="0.21681586"/>
</filter>
</defs>
<g transform="translate(-47.378 -87.825)">
<rect x="67.947" y="87.825" width="47.806" height="45.904" rx="20.173" ry="21.003" fill="url(#d)" style="paint-order:markers stroke fill"/>
<path transform="matrix(1.2831 0 0 1.2714 -13.241 -19.6)" d="m79.574 97.889c0 1.7634-0.74349 3.336-1.905 4.3605-1.7277 1.3197-3.7339 1.5889-5.4984 0.6197-1.648-0.92521-2.7762-2.808-2.7762-4.9802 0-3.0871 2.2788-5.5897 5.0898-5.5897 2.811 0 5.0898 2.5026 5.0898 5.5897z" fill="#555" fill-rule="evenodd" filter="url(#k)" stroke-width="0" style="paint-order:markers stroke fill"/>
<path d="m88.977 104.39c0 2.2419-0.95394 4.2414-2.4442 5.5439-2.2167 1.6779-4.7908 2.0201-7.0547 0.78789-2.1144-1.1763-3.562-3.5701-3.562-6.3318 1.3e-5 -3.9249 2.9238-7.1067 6.5305-7.1067 3.6067 0 6.5304 3.1818 6.5304 7.1067z" fill="url(#b)" stroke-width="0" style="paint-order:markers stroke fill"/>
<ellipse cx="82.72" cy="104.26" rx="3.444" ry="3.9609" style="paint-order:markers stroke fill"/>
<path transform="matrix(1.2831 0 0 1.2714 -13.241 -19.6)" d="m93.327 97.797c0 1.7634-0.74349 3.336-1.905 4.3605-1.7277 1.3197-3.7339 1.5889-5.4984 0.6197-1.648-0.92521-2.7762-2.808-2.7762-4.9802 0-3.0871 2.2788-5.5897 5.0898-5.5897 2.811 0 5.0898 2.5026 5.0898 5.5897z" fill="#555" fill-rule="evenodd" filter="url(#l)" stroke-width="0" style="paint-order:markers stroke fill"/>
<path d="m106.62 104.28c0 2.2419-0.95395 4.2414-2.4442 5.5439-2.2167 1.6779-4.7908 2.0201-7.0547 0.78789-2.1144-1.1763-3.562-3.5701-3.562-6.3318 1e-5 -3.9249 2.9238-7.1067 6.5304-7.1067 3.6067 0 6.5304 3.1818 6.5304 7.1067z" fill="url(#c)" stroke-width="0" style="paint-order:markers stroke fill"/>
<ellipse cx="100.02" cy="104.14" rx="3.444" ry="3.9609" style="paint-order:markers stroke fill"/>
<g transform="matrix(1.2831 0 0 -1.2714 -8.511 259.79)" stroke-width="0">
<path d="m52.143 95.041c-1.0925 0.23184-2.2913 2.2651-1.4917 4.7182 0.2913 1.096 0.70165 1.2189 0.12607 2.3952-0.58642 0.77831-2.5957 0.39455-3.4435 0.82719-1.086 0.0756-2.7321 1.7903-2.8997 3.4439-0.46243 3.2824 0.40455 5.3655 2.2245 7.4463 2.75 1.4646 6.1056 1.3866 8.7234 0.84989 2.6474-1.0835 3.3538-2.7178 3.1945-6.1171-0.12275-2.6194 0.36743-4.6942-2.8241-6.8984-1.5839-0.79265-1.6753-2.2241-2.1896-3.8332-0.36376-1.9448 0.27771-3.1767-1.4199-2.832z" fill="url(#f)" style="paint-order:markers stroke fill"/>
<path transform="matrix(.78033 0 0 .92452 13.423 -2.2074)" d="m44.175 112.47c-0.63351-0.0237-1.885 0.43658-1.885 1.3723v0.77816c0 0.49609 0.21788 0.92469 0.5381 1.1381-0.30901 0.19769-0.52459 0.65841-0.52459 1.198v0.79002c0 0.57522 0.24532 1.0602 0.58733 1.2331-0.33224 0.20815-0.55982 0.64472-0.55982 1.1521v0.77869c0 0.50363 0.22436 0.93729 0.55258 1.1473-0.29058 0.17747-0.49756 0.6492-0.49756 1.2066v0.77869c0 0.71035 1.0753 1.2752 1.4896 1.3272 2.4317 0.30532 3.8774-0.0301 5.7126-0.3001 0.41324-0.0608 1.6174-0.84598 1.6174-1.5563v-0.77869c0-0.5964-0.23702-1.0949-0.55982-1.2395 0.30189-0.2203 0.5048-0.63567 0.5048-1.1143v-0.77869c0-0.52032-0.2398-0.43665-0.58588-0.63805 0.32679-0.18503 0.55837-0.48057 0.55837-1.0394v-0.79002c0-0.54773-0.22255-1.0135-0.53907-1.2061 0.31339-0.21613 0.52507-0.64037 0.52507-1.13v-0.77816c0-0.71035-1.2884-1.2716-1.8429-1.2804-1.9854-0.0314-4.3558-0.24294-5.0912-0.27047z" fill="#ff9f33" fill-rule="evenodd" filter="url(#j)" style="mix-blend-mode:normal;paint-order:markers stroke fill"/>
<path d="m44.178 102.81v0.77816c0 0.49609-0.02074 0.92469 0.28006 1.1381-0.29026 0.19769-0.89847 0.65841-0.89847 1.198v0.79002c0 0.57522 0.23044 1.0602 0.55169 1.2331-0.31208 0.20815-0.38015 0.56503-0.38015 1.0724v0.77869c0 0.50363 0.62852 0.81413 0.93683 1.0241-0.27295 0.17747-0.30363 0.41056-0.28182 0.96755l0.03984 1.0178c0.02779 0.70981 1.5519 1.3071 1.9411 1.3591 2.2842 0.30532 2.1247 0.14087 3.8485-0.12918 0.38817-0.0608 1.5192-0.84598 1.5192-1.5563v-0.77869c0-0.5964-0.22264-1.0949-0.52585-1.2395 0.41108-0.0211 1.0935-0.4292 1.1197-0.90715l0.05578-1.0178c0.02848-0.51954-0.30494-0.79525-0.77346-0.86118 0.30696-0.18503 0.52449-0.48057 0.52449-1.0394v-0.79002c0-0.54773-0.6553-0.98165-0.95262-1.1742 0.29437-0.21613 0.71634-0.41724 0.71634-0.90686v-0.77816c0-0.71035-1.2102-1.2716-1.7311-1.2804-1.4026-0.0236-2.5814-0.39321-3.9612-0.26134-0.99562 0.0878-1.8466 0.41495-2.0289 1.3633z" fill="url(#e)" fill-rule="evenodd" style="paint-order:markers stroke fill"/>
</g>
<path d="m75.378 100.57c1.6395-0.3379 3.7056-1.0294 6.2114-2.5005 0.20773-0.12196 0.42402-0.25249 0.64885-0.39237 0.80941-0.50766 1.4429-0.96491 1.8742-1.2906a0.22539 0.22539 90 0 0-0.27167-0.35973c-0.42355 0.31987-1.0462 0.76929-1.8414 1.268-0.22084 0.13739-0.43382 0.26593-0.63825 0.38595-2.4637 1.4464-4.4835 2.1199-6.0742 2.4478a0.22539 0.22539 90 0 0 0.09099 0.4415z" fill="#252525" filter="url(#i)" stroke="#252525" stroke-linecap="round" stroke-linejoin="round" stroke-width="2" style="mix-blend-mode:normal;paint-order:markers stroke fill"/>
<path d="m75.575 100.21c1.606-0.33058 3.6319-1.0034 6.0938-2.4317 0.20414-0.11843 0.41674-0.24519 0.63779-0.38103 0.86628-0.53649 1.543-1.0235 2.0029-1.3708a0.22539 0.22539 90 0 0-0.27166-0.35974c-0.4517 0.34111-1.1168 0.81977-1.9679 1.3469-0.21712 0.13342-0.42644 0.25823-0.62732 0.37476-2.4202 1.4041-4.4005 2.0594-5.9585 2.3801a0.22539 0.22539 90 0 0 0.09089 0.44153z" fill="#252525" stroke="#252525" stroke-linecap="round" stroke-linejoin="round" stroke-width="2" style="paint-order:markers stroke fill"/>
<path transform="matrix(-1 0 0 1 208.08 7.7085)" d="m100.59 92.864c1.6395-0.3379 3.7056-1.0294 6.2114-2.5005 0.20773-0.12196 0.42402-0.25249 0.64885-0.39237 0.80942-0.50766 1.4429-0.9649 1.8742-1.2906a0.22539 0.22539 90 0 0-0.27168-0.35973c-0.42355 0.31988-1.0462 0.76928-1.8414 1.268-0.22084 0.13739-0.43382 0.26593-0.63825 0.38595-2.4637 1.4464-4.4835 2.1199-6.0742 2.4478a0.22539 0.22539 90 0 0 0.091 0.44151z" fill="#252525" filter="url(#h)" stroke="#252525" stroke-linecap="round" stroke-linejoin="round" stroke-width="2" style="paint-order:markers stroke fill"/>
<path d="m107.38 99.77c-1.558-0.3207-3.5383-0.97602-5.9585-2.3801-0.20088-0.11654-0.4102-0.24134-0.62798-0.37517-0.85046-0.5267-1.5156-1.0053-1.9673-1.3465a0.22539 0.22539 90 0 0-0.27166 0.35974c0.45991 0.34731 1.1366 0.8343 2.0023 1.3704 0.22172 0.13625 0.43431 0.26301 0.63845 0.38144 2.4619 1.4283 4.4878 2.1011 6.0938 2.4317a0.22539 0.22539 90 0 0 0.0909-0.44153z" fill="#252525" stroke="#252525" stroke-linecap="round" stroke-linejoin="round" stroke-width="2" style="paint-order:markers stroke fill"/>
<path d="m80.104 119.39c0.42714-0.30547 1.0907-0.69564 2.1743-1.0224 0.61003-0.18393 1.2457-0.31742 1.9121-0.43673 0.15707-0.0281 0.31846-0.056 0.49446-0.0856 3.349-0.48095 7.2144-0.48979 11.583 0.22771 3.4401 0.60652 5.4669 1.3952 6.9515 2.1883a0.22539 0.22539 90 0 0 0.2124-0.39762c-1.5323-0.81852-3.6055-1.621-7.0883-2.235-4.414-0.72499-8.3256-0.71737-11.728-0.22868-0.1824 0.0307-0.34536 0.0588-0.50437 0.0873-0.6736 0.12061-1.3287 0.25768-1.9628 0.44887-1.1342 0.34196-1.8419 0.75513-2.3064 1.0873a0.22539 0.22539 90 0 0 0.26223 0.36666z" fill="#252525" filter="url(#g)" stroke="#252525" stroke-linecap="round" stroke-linejoin="round" stroke-width="2" style="mix-blend-mode:normal;paint-order:markers stroke fill"/>
<path d="m80.232 119.02c0.71119-0.396 1.8451-0.92908 3.5612-1.3255 0.97077-0.22424 1.9798-0.37218 3.0256-0.4742 0.24522-0.0239 0.5036-0.0464 0.77876-0.0675 3.8543-0.23974 8.4794 0.11404 13.295 1.7155 1.3125 0.44518 2.2703 0.87459 2.8454 1.1491a0.22539 0.22539 90 0 0 0.19422-0.4068c-0.58689-0.28019-1.5615-0.71701-2.8961-1.1697-4.8801-1.6228-9.564-1.9809-13.47-1.7379-0.28132 0.0215-0.54282 0.0443-0.79133 0.0685-1.0594 0.10334-2.0885 0.25385-3.0832 0.48363-1.7629 0.40722-2.9363 0.95727-3.6791 1.3709a0.22539 0.22539 90 0 0 0.2193 0.39384z" fill="#252525" stroke="#252525" stroke-linecap="round" stroke-linejoin="round" stroke-width="2" style="paint-order:markers stroke fill"/>
</g>
</svg>
