<?xml version="1.0" encoding="UTF-8"?>
<svg width="50.119mm" height="45.904mm" version="1.1" viewBox="0 0 50.119 45.904" xmlns="http://www.w3.org/2000/svg" xmlns:xlink="http://www.w3.org/1999/xlink">
<defs>
<linearGradient id="a">
<stop stop-color="#247be2" offset="0"/>
<stop stop-color="#0d4eb5" offset=".66741"/>
<stop stop-color="#00279c" offset="1"/>
</linearGradient>
<radialGradient id="b" cx="95.935" cy="101.58" r="18.63" gradientTransform="matrix(1.5442 -1.3276 1.4323 1.6357 -187 132.79)" gradientUnits="userSpaceOnUse">
<stop stop-color="#fff3e3" offset="0"/>
<stop stop-color="#ffeb33" offset=".35606"/>
<stop stop-color="#ffd933" offset=".64656"/>
<stop stop-color="#ffa533" offset="1"/>
</radialGradient>
<filter id="i" x="-.02813" y="-.054983" width="1.0563" height="1.11" color-interpolation-filters="sRGB">
<feGaussianBlur stdDeviation="0.29360867"/>
</filter>
<radialGradient id="e" cx="81.779" cy="118.92" r="12.525" gradientTransform="matrix(1.9596 -.025754 .012687 .94789 -68.365 83.937)" gradientUnits="userSpaceOnUse">
<stop stop-color="#d31940" offset="0"/>
<stop stop-color="#ee38a6" offset="1"/>
</radialGradient>
<linearGradient id="f" x1="71.213" x2="70.982" y1="104.59" y2="109.02" gradientTransform="matrix(1.2831 0 0 1.2714 -11.445 48.188)" gradientUnits="userSpaceOnUse">
<stop stop-color="#fff" offset="0"/>
<stop stop-color="#e9efff" offset=".4235"/>
<stop stop-color="#c100ff" offset="1"/>
</linearGradient>
<filter id="h" x="-.12724" y="-.34975" width="1.2545" height="1.7" color-interpolation-filters="sRGB">
<feGaussianBlur stdDeviation="0.23259048"/>
</filter>
<filter id="g" x="-.12755" y="-.35221" width="1.2551" height="1.7049" color-interpolation-filters="sRGB">
<feGaussianBlur stdDeviation="0.23259048"/>
</filter>
<radialGradient id="d" cx="49.867" cy="184.78" r="6.8666" gradientTransform="matrix(.4904 .41562 -.8386 1.1832 204.35 -54.168)" gradientUnits="userSpaceOnUse" xlink:href="#a"/>
<radialGradient id="c" cx="49.867" cy="184.78" r="6.8666" gradientTransform="matrix(-.4904 .41562 .8386 1.1832 -17.52 -54.01)" gradientUnits="userSpaceOnUse" xlink:href="#a"/>
</defs>
<g transform="translate(-68.358 -162.38)">
<rect x="68.721" y="162.38" width="47.806" height="45.904" rx="20.173" ry="21.003" fill="url(#b)" style="paint-order:markers stroke fill"/>
<path transform="matrix(1.3011 0 0 1.2941 -12.839 45.564)" d="m94.063 106.3c0.74241 1.4877-1.5004 12.236-11.978 12.246-10.943 0.0104-13.562-10.573-12.827-11.975 0.73312-1.4146 0.92805-0.64618 11.5-0.51196 10.572 0.13421 12.793-0.84775 13.305 0.2414z" fill="#ff6f33" filter="url(#i)" stroke-width="0" style="mix-blend-mode:normal;paint-order:markers stroke fill"/>
<path d="m109.53 182.81c0.95254 1.8915-1.925 15.557-15.368 15.569-14.041 0.0132-17.401-13.442-16.458-15.225 0.26037-0.49784 0.60754-1.2328 1.6351-1.0126 0.99397 0.21302 3.3103 0.23826 13.12 0.36166 11.448 0.144 14.187-0.27914 15.998-0.44809 0.56981-0.0531 0.97011 0.5389 1.0725 0.75501z" fill="url(#e)" stroke-width="0" style="paint-order:markers stroke fill"/>
<path d="m79.527 182.08c10.054 0.57002 19.545 0.54471 28.678 0 0.45822-0.0273 0.82919 0.21022 0.82919 0.47132v1.0877c0 0.2611-0.37173 0.43064-0.82919 0.47131-11.429 1.0161-20.641 0.82622-28.678 0-0.45687-0.0469-0.8292-0.21021-0.8292-0.47131v-1.0877c0-0.2611 0.37091-0.49731 0.8292-0.47132z" fill="url(#f)" stroke-width="0" style="paint-order:markers stroke fill"/>
<path transform="matrix(.90946 0 0 1.014 8.2228 -1.5362)" d="m77.275 176.18c0.14144-0.4432 0.45658-1.2274 1.1625-2.0062 0.40607-0.44797 0.89604-0.84232 1.4551-1.144 0.13105-0.0707 0.27389-0.14063 0.42819-0.20655 0.89352-0.38795 2.0183-0.63355 3.2748-0.54098 1.0978 0.0809 2.1964 0.41605 3.1536 1.0217 0.49114 0.31362 0.89826 0.69125 1.2134 1.0899 0.44764 0.56623 0.64765 1.0939 0.74368 1.4344a0.19962 0.19962 90 0 0 0.38426-0.10836c-0.10663-0.37813-0.32701-0.95671-0.81474-1.5737-0.34254-0.43328-0.78282-0.84105-1.3125-1.1792-1.0179-0.64406-2.1808-0.99767-3.3384-1.083-1.3255-0.0977-2.5146 0.16111-3.4621 0.57246-0.16513 0.0705-0.31891 0.14582-0.45985 0.22186-0.60108 0.32432-1.1265 0.7475-1.5613 1.2272-0.75617 0.83418-1.0946 1.6752-1.247 2.1529a0.19962 0.19962 90 0 0 0.38034 0.12138z" fill="#252525" filter="url(#h)" stroke="#252525" stroke-linecap="round" stroke-linejoin="round" stroke-width="2" style="mix-blend-mode:normal;paint-order:markers stroke fill"/>
<path d="m78.726 176.59c0.04444-0.18017 0.16735-0.65013 0.45212-1.1984 0.09987-0.19228 0.24773-0.44897 0.45536-0.7279 0.347-0.46618 0.86673-1.0008 1.5948-1.3903 1.0778-0.59033 2.411-0.81928 3.7547-0.59374 0.63775 0.10705 1.2581 0.31423 1.8258 0.61732 0.57406 0.30651 1.0848 0.70599 1.5049 1.1875 0.65967 0.75718 0.92076 1.5438 1.0266 1.952a0.21645 0.21645 90 0 0 0.41903-0.1087c-0.11532-0.44452-0.39954-1.3016-1.1194-2.1278-0.45657-0.52338-1.0095-0.95507-1.6273-1.2849-0.61066-0.32605-1.2759-0.54788-1.958-0.66237-1.4349-0.24085-2.8672 2e-3 -4.0324 0.63997-0.79571 0.42564-1.3612 1.0089-1.736 1.5125-0.22468 0.30184-0.38448 0.57932-0.49227 0.78685-0.30742 0.5919-0.44016 1.0993-0.48825 1.2943a0.21645 0.21645 90 0 0 0.42031 0.10368z" fill="#252525" stroke="#252525" stroke-linecap="round" stroke-linejoin="round" stroke-width="1.9207" style="paint-order:markers stroke fill"/>
<path transform="matrix(-.90946 0 0 1.014 194.2 -.81493)" d="m95.891 175.61c0.14186-0.44455 0.45791-1.231 1.1658-2.0119 0.40719-0.44921 0.89853-0.84468 1.4593-1.1472 0.13143-0.0709 0.2747-0.14104 0.42947-0.20715 0.89557-0.38884 2.0228-0.63496 3.282-0.54219 1.1001 0.0811 2.2012 0.41694 3.1608 1.0241 0.49266 0.3146 0.90108 0.6934 1.2173 1.0934 0.4492 0.56819 0.65 1.0978 0.74644 1.4398a0.1841 0.1841 90 0 0 0.35438-0.0999c-0.10622-0.37666-0.32581-0.95327-0.81198-1.5682-0.34148-0.43194-0.78047-0.83853-1.3086-1.1758-1.0155-0.64255-2.1759-0.99544-3.3312-1.0806-1.3228-0.0975-2.5095 0.1608-3.4547 0.57122-0.16475 0.0704-0.31811 0.14545-0.45866 0.22129-0.59945 0.32343-1.1235 0.74549-1.5572 1.224-0.75422 0.83203-1.0917 1.6708-1.2438 2.1472a0.1841 0.1841 90 0 0 0.35077 0.11194z" fill="#252525" filter="url(#g)" stroke="#252525" stroke-linecap="round" stroke-linejoin="round" stroke-width="2" style="mix-blend-mode:normal;paint-order:markers stroke fill"/>
<path d="m107.89 176.54c-0.0481-0.19494-0.18082-0.70236-0.48825-1.2943-0.10779-0.20754-0.26759-0.48501-0.49227-0.78686-0.37485-0.50359-0.94031-1.0868-1.7379-1.5135-1.1634-0.63722-2.5956-0.8798-4.0306-0.63894-0.68208 0.11448-1.3474 0.33631-1.958 0.66236-0.6178 0.32986-1.1707 0.76155-1.6272 1.2848-0.7199 0.8263-1.0041 1.6834-1.1194 2.1279a0.21645 0.21645 90 0 0 0.41903 0.1087c0.10588-0.40814 0.36697-1.1948 1.0267-1.9521 0.41997-0.48143 0.93071-0.88092 1.5048-1.1874 0.56765-0.30308 1.188-0.51026 1.8258-0.61731 1.3437-0.22554 2.6769 3e-3 3.7528 0.59271 0.72998 0.39051 1.2497 0.92512 1.5967 1.3913 0.20763 0.27893 0.35549 0.53563 0.45536 0.72791 0.28476 0.54827 0.40768 1.0182 0.45212 1.1984a0.21645 0.21645 90 0 0 0.4203-0.10368z" fill="#252525" stroke="#252525" stroke-linecap="round" stroke-linejoin="round" stroke-width="1.9207" style="paint-order:markers stroke fill"/>
<path d="m76.49 178.08c-0.63366-0.41582-2.0203 2.206-4.6997 3.8234-3.7215 2.2465-4.4304 5.6783-2.0586 7.5179 3.2259 1.8513 5.4652-0.63941 5.9397-5.2365 0.1625-3.4124 1.3771-5.7056 0.81852-6.1048z" fill="url(#d)" fill-rule="evenodd" stroke-width="0" style="paint-order:markers stroke fill"/>
<path d="m110.35 178.24c0.63366-0.41582 2.0203 2.206 4.6997 3.8234 3.7215 2.2465 4.4304 5.6783 2.0586 7.5179-3.2259 1.8513-5.4652-0.63941-5.9397-5.2365-0.1625-3.4124-1.3771-5.7056-0.81853-6.1048z" fill="url(#c)" fill-rule="evenodd" stroke-width="0" style="paint-order:markers stroke fill"/>
</g>
</svg>
