<?xml version="1.0" encoding="UTF-8" standalone="no"?>
<!-- Created with Inkscape (http://www.inkscape.org/) -->

<svg
   width="39.955959mm"
   height="39.955959mm"
   viewBox="0 0 39.955959 39.955959"
   version="1.1"
   id="svg5"
   inkscape:version="1.2.1 (9c6d41e410, 2022-07-14)"
   sodipodi:docname="Aloud.svg"
   xml:space="preserve"
   xmlns:inkscape="http://www.inkscape.org/namespaces/inkscape"
   xmlns:sodipodi="http://sodipodi.sourceforge.net/DTD/sodipodi-0.dtd"
   xmlns:xlink="http://www.w3.org/1999/xlink"
   xmlns="http://www.w3.org/2000/svg"
   xmlns:svg="http://www.w3.org/2000/svg"><sodipodi:namedview
     id="namedview7"
     pagecolor="#ffffff"
     bordercolor="#111111"
     borderopacity="1"
     inkscape:showpageshadow="0"
     inkscape:pageopacity="0"
     inkscape:pagecheckerboard="1"
     inkscape:deskcolor="#d1d1d1"
     inkscape:document-units="mm"
     showgrid="false"
     inkscape:zoom="1.4324916"
     inkscape:cx="439.79317"
     inkscape:cy="1770.6911"
     inkscape:window-width="1920"
     inkscape:window-height="991"
     inkscape:window-x="-9"
     inkscape:window-y="-9"
     inkscape:window-maximized="1"
     inkscape:current-layer="g24518" /><defs
     id="defs2"><linearGradient
       inkscape:collect="always"
       id="linearGradient6158"><stop
         style="stop-color:#00aaff;stop-opacity:1;"
         offset="0"
         id="stop6154" /><stop
         style="stop-color:#00c4ff;stop-opacity:1;"
         offset="1"
         id="stop6156" /></linearGradient><linearGradient
       inkscape:collect="always"
       xlink:href="#linearGradient24524"
       id="linearGradient24526"
       x1="88.361229"
       y1="307.46295"
       x2="113.94281"
       y2="338.02423"
       gradientUnits="userSpaceOnUse" /><linearGradient
       inkscape:collect="always"
       id="linearGradient24524"><stop
         style="stop-color:#00007b;stop-opacity:1;"
         offset="0"
         id="stop24520" /><stop
         style="stop-color:#0002ff;stop-opacity:1;"
         offset="1"
         id="stop24522" /></linearGradient><linearGradient
       inkscape:collect="always"
       xlink:href="#linearGradient1684"
       id="linearGradient1678"
       gradientUnits="userSpaceOnUse"
       x1="89.928474"
       y1="308.76898"
       x2="112.63677"
       y2="335.15094"
       gradientTransform="translate(0,-1.5875)" /><linearGradient
       inkscape:collect="always"
       id="linearGradient1684"><stop
         style="stop-color:#00007b;stop-opacity:1;"
         offset="0"
         id="stop1680" /><stop
         style="stop-color:#0029ff;stop-opacity:1;"
         offset="1"
         id="stop1686" /></linearGradient><linearGradient
       inkscape:collect="always"
       xlink:href="#linearGradient24524"
       id="linearGradient2073"
       gradientUnits="userSpaceOnUse"
       x1="88.361229"
       y1="307.46295"
       x2="113.94281"
       y2="338.02423"
       gradientTransform="translate(0,-1.5875)" /><linearGradient
       inkscape:collect="always"
       xlink:href="#linearGradient24524"
       id="linearGradient2075"
       gradientUnits="userSpaceOnUse"
       x1="88.361229"
       y1="307.46295"
       x2="113.94281"
       y2="338.02423"
       gradientTransform="translate(0,-1.5875)" /><linearGradient
       inkscape:collect="always"
       xlink:href="#linearGradient6158"
       id="linearGradient6160"
       x1="106.12333"
       y1="335.15094"
       x2="87.560867"
       y2="318.17245"
       gradientUnits="userSpaceOnUse"
       gradientTransform="translate(0,-1.5875)" /><filter
       inkscape:collect="always"
       style="color-interpolation-filters:sRGB"
       id="filter7361-0-9"
       x="-0.017570025"
       y="-0.11254484"
       width="1.03514"
       height="1.2250897"><feGaussianBlur
         inkscape:collect="always"
         stdDeviation="1.0556891"
         id="feGaussianBlur7363-3-3" /></filter><filter
       inkscape:collect="always"
       style="color-interpolation-filters:sRGB"
       id="filter19976"
       x="-0.086156914"
       y="-0.086156914"
       width="1.1723138"
       height="1.1723138"><feGaussianBlur
         inkscape:collect="always"
         stdDeviation="0.75030942"
         id="feGaussianBlur19978" /></filter><filter
       inkscape:collect="always"
       style="color-interpolation-filters:sRGB"
       id="filter18967-4"
       x="-0.045680901"
       y="-0.053112807"
       width="1.0913618"
       height="1.1062027"><feGaussianBlur
         inkscape:collect="always"
         stdDeviation="0.16319154"
         id="feGaussianBlur18969-1" /></filter><filter
       inkscape:collect="always"
       style="color-interpolation-filters:sRGB"
       id="filter19976-2"
       x="-0.06866295"
       y="-0.06866295"
       width="1.1373259"
       height="1.1373259"><feGaussianBlur
         inkscape:collect="always"
         stdDeviation="0.51335757"
         id="feGaussianBlur19978-3" /></filter><filter
       inkscape:collect="always"
       style="color-interpolation-filters:sRGB"
       id="filter7361-0"
       x="-0.017570025"
       y="-0.11254484"
       width="1.03514"
       height="1.2250897"><feGaussianBlur
         inkscape:collect="always"
         stdDeviation="1.0556891"
         id="feGaussianBlur7363-3" /></filter><filter
       inkscape:collect="always"
       style="color-interpolation-filters:sRGB"
       id="filter18967"
       x="-0.045680901"
       y="-0.053112807"
       width="1.0913618"
       height="1.1062027"><feGaussianBlur
         inkscape:collect="always"
         stdDeviation="0.16319154"
         id="feGaussianBlur18969" /></filter><filter
       inkscape:collect="always"
       style="color-interpolation-filters:sRGB"
       id="filter7361-0-9-6"
       x="-0.017570025"
       y="-0.11254484"
       width="1.03514"
       height="1.2250897"><feGaussianBlur
         inkscape:collect="always"
         stdDeviation="1.0556891"
         id="feGaussianBlur7363-3-3-7" /></filter><filter
       inkscape:collect="always"
       style="color-interpolation-filters:sRGB"
       id="filter19976-9"
       x="-0.086156914"
       y="-0.086156914"
       width="1.1723138"
       height="1.1723138"><feGaussianBlur
         inkscape:collect="always"
         stdDeviation="0.75030942"
         id="feGaussianBlur19978-2" /></filter><filter
       inkscape:collect="always"
       style="color-interpolation-filters:sRGB"
       id="filter18967-4-1"
       x="-0.045680902"
       y="-0.053112807"
       width="1.0913618"
       height="1.1062027"><feGaussianBlur
         inkscape:collect="always"
         stdDeviation="0.16319154"
         id="feGaussianBlur18969-1-5" /></filter><filter
       inkscape:collect="always"
       style="color-interpolation-filters:sRGB"
       id="filter19976-4"
       x="-0.086156914"
       y="-0.086156914"
       width="1.1723138"
       height="1.1723138"><feGaussianBlur
         inkscape:collect="always"
         stdDeviation="0.75030942"
         id="feGaussianBlur19978-30" /></filter><filter
       inkscape:collect="always"
       style="color-interpolation-filters:sRGB"
       id="filter18967-4-6"
       x="-0.045680909"
       y="-0.053112807"
       width="1.0913618"
       height="1.1062027"><feGaussianBlur
         inkscape:collect="always"
         stdDeviation="0.16319154"
         id="feGaussianBlur18969-1-8" /></filter></defs><g
     inkscape:label="Capa 1"
     inkscape:groupmode="layer"
     id="layer1"
     transform="translate(-274.64924,-441.25075)"><g
       id="g24518"
       style="stroke:url(#linearGradient24526)"
       transform="translate(-0.17972215,10.996807)"><circle
         style="fill:url(#linearGradient6160);fill-opacity:1;stroke:url(#linearGradient1678);stroke-width:3;stroke-linecap:round;stroke-linejoin:round;stroke-dasharray:none;stroke-opacity:1;paint-order:stroke fill markers"
         id="path7859-7-2-9-6-9"
         cx="100.10719"
         cy="321.54788"
         r="16.253731" /><path
         style="fill:none;fill-opacity:1;stroke:url(#linearGradient2073);stroke-width:2;stroke-linecap:round;stroke-linejoin:round;stroke-dasharray:none;stroke-opacity:1;paint-order:stroke fill markers"
         d="m 86.571493,321.99086 h 2.299928 c 0.902574,0.19389 0.952543,0.75339 0.908156,1.17238 l 0.165379,2.69937 c 0.177429,1.16619 1.945747,1.15897 2.124694,0 l 0.402304,-8.72005 c 0.07815,-1.65022 2.376684,-1.79317 2.572255,0.0651 L 95.2029,331.0775 c -0.01,2.01817 2.377011,2.00762 2.521733,0.1153 l 0.846124,-19.68247 c 0.02796,-0.73631 0.555531,-1.7036 1.442183,-1.65699"
         id="path4614-3"
         sodipodi:nodetypes="ccccccccccc" /><path
         style="fill:none;fill-opacity:1;stroke:url(#linearGradient2075);stroke-width:2;stroke-linecap:round;stroke-linejoin:round;stroke-dasharray:none;stroke-opacity:1;paint-order:stroke fill markers"
         d="m 113.50954,321.98195 h -2.29993 c -0.90257,0.19389 -0.95254,0.75339 -0.90815,1.17238 l -0.16538,2.69937 c -0.17743,1.1662 -1.94575,1.15897 -2.1247,0 l -0.4023,-8.72005 c -0.0781,-1.65022 -2.37669,-1.79316 -2.57225,0.0651 l -0.15869,13.86984 c 0.01,2.01817 -2.37702,2.00762 -2.52174,0.1153 l -0.58491,-19.68247 c -0.028,-0.73631 -0.55553,-1.70359 -1.44219,-1.65699"
         id="path4614-5-9"
         sodipodi:nodetypes="ccccccccccc" /><rect
         style="fill:#646464;fill-opacity:1;stroke:#97a3a3;stroke-width:0;stroke-linecap:round;stroke-linejoin:round;stroke-dasharray:none;stroke-opacity:1;paint-order:stroke fill markers;filter:url(#filter7361-0-9)"
         id="rect7289-1-2-4"
         width="144.2032"
         height="22.512394"
         x="34.452888"
         y="438.34277"
         ry="3.5684512"
         inkscape:export-filename="Write_it_aloud2.png"
         inkscape:export-xdpi="96"
         inkscape:export-ydpi="96" /><circle
         style="fill:#646464;fill-opacity:1;stroke:#646464;stroke-width:2;stroke-linecap:round;stroke-linejoin:round;stroke-dasharray:none;stroke-opacity:0.752941;paint-order:stroke fill markers;filter:url(#filter19976)"
         id="path7859-7-2-9-6-9-0-2-2"
         cx="104.15083"
         cy="450.31641"
         r="16.253731" /><circle
         style="mix-blend-mode:normal;fill:#484848;fill-opacity:1;stroke:#646464;stroke-width:2;stroke-linecap:round;stroke-linejoin:round;stroke-dasharray:none;stroke-opacity:0.752941;paint-order:stroke fill markers;filter:url(#filter19976-2)"
         id="path7859-7-2-9-6-9-0-2-2-2"
         cx="102.62183"
         cy="384.7504"
         r="16.253731" /><text
         xml:space="preserve"
         style="font-size:12.693px;font-family:Consolas;-inkscape-font-specification:Consolas;letter-spacing:2.06713px;word-spacing:-1.40728px;fill:#0043de;fill-opacity:1;stroke:#0043de;stroke-width:0.5;stroke-linecap:round;stroke-linejoin:round;stroke-dasharray:none;stroke-opacity:1;paint-order:stroke fill markers"
         x="94.55423"
         y="407.96393"
         id="text1956-4-0-6-0-9-6-1-9-8"
         transform="matrix(0.93961776,0.00853276,-0.11739349,1.0631965,0,0)"><tspan
           sodipodi:role="line"
           id="tspan1954-1-5-8-1-3-4-5-8-1"
           style="font-style:normal;font-variant:normal;font-weight:normal;font-stretch:normal;font-size:12.693px;font-family:'Freestyle Script';-inkscape-font-specification:'Freestyle Script';fill:#0043de;fill-opacity:1;stroke:#0043de;stroke-width:0.5;stroke-dasharray:none;stroke-opacity:1"
           x="94.55423"
           y="407.96393"
           dx="0">Write  it</tspan></text><rect
         style="fill:#ffffff;fill-opacity:1;stroke:#a3a3a3;stroke-width:0.2;stroke-linecap:round;stroke-linejoin:round;stroke-dasharray:none;stroke-opacity:1;paint-order:stroke fill markers"
         id="rect7289-1-8-3-9"
         width="144.2032"
         height="22.512394"
         x="33.357975"
         y="437.55856"
         ry="3.5684512" /><text
         xml:space="preserve"
         style="font-size:22.7341px;font-family:Consolas;-inkscape-font-specification:Consolas;letter-spacing:13.2292px;fill:#3a3a3a;fill-opacity:1;stroke:#313131;stroke-width:2.2;stroke-linecap:round;stroke-linejoin:round;stroke-dasharray:none;stroke-opacity:1;paint-order:stroke fill markers"
         x="41.001507"
         y="446.52255"
         id="text1956-2-9-7-1-6-53-7-6"
         transform="scale(0.97659779,1.023963)"><tspan
           sodipodi:role="line"
           id="tspan1954-2-7-4-9-4-63-5-2"
           style="font-style:normal;font-variant:normal;font-weight:normal;font-stretch:normal;font-size:22.7341px;font-family:'Arial Rounded MT Bold';-inkscape-font-specification:'Arial Rounded MT Bold, ';fill:#3a3a3a;fill-opacity:1;stroke:#313131;stroke-width:2.2;stroke-linecap:round;stroke-linejoin:round;stroke-dasharray:none;stroke-opacity:1"
           x="41.001507"
           y="446.52255">ALOUD</tspan></text><circle
         style="fill:#ffffff;fill-opacity:1;stroke:#ffffff;stroke-width:2;stroke-linecap:round;stroke-linejoin:round;stroke-dasharray:none;stroke-opacity:1;paint-order:stroke fill markers"
         id="path7859-7-2-9-6-9-0-2"
         cx="103.62437"
         cy="449.32367"
         r="16.253731" /><path
         style="fill:none;fill-opacity:1;stroke:#001095;stroke-width:1.8;stroke-linecap:round;stroke-linejoin:round;stroke-dasharray:none;stroke-opacity:0.837681;paint-order:stroke fill markers;filter:url(#filter18967-4)"
         d="m 89.249495,449.74159 h 2.35087 c 2.21653,0.0214 1.83229,2.32018 2.22026,4.11403 0.36676,3.31492 2.31197,3.15356 2.41289,-0.28828 l 0.32979,-8.65808 c 0.35766,-3.38074 2.61383,-2.5644 2.48147,0.0653 l 0.52241,14.0399 c 0.27641,3.04769 2.047085,2.82107 2.285575,-0.0653 l 0.48976,-20.01501 c 0.0358,-2.73453 2.42686,-2.63636 2.48147,-0.0327 l 0.68567,20.24356 c 0.0586,2.94555 2.18283,2.66356 2.15496,-0.1306 l 0.32651,-14.3664 c -0.17866,-3.39261 2.22488,-3.00369 2.28556,-0.13062 l 0.46039,9.5387 c 0.24802,2.56787 1.68251,2.60241 2.25524,-0.13059 0.23056,-1.37102 0.36632,-3.72661 2.18201,-3.98804 h 2.35087"
         id="path18553-98"
         sodipodi:nodetypes="cccccccccccccccccc" /><path
         style="fill:none;fill-opacity:1;stroke:#0043de;stroke-width:2;stroke-linecap:round;stroke-linejoin:round;stroke-dasharray:none;stroke-opacity:1;paint-order:stroke fill markers"
         d="m 88.890335,449.29798 h 2.35087 c 2.21652,0.0214 1.83229,2.32018 2.22026,4.11403 0.36676,3.31492 2.31197,3.15356 2.41289,-0.28828 l 0.32979,-8.65808 c 0.35766,-3.38074 2.61383,-2.5644 2.48147,0.0653 l 0.52241,14.0399 c 0.27641,3.04769 2.047085,2.82107 2.285575,-0.0653 l 0.48976,-20.01501 c 0.0358,-2.73453 2.42686,-2.63636 2.48147,-0.0327 l 0.68567,20.24356 c 0.0586,2.94555 2.18283,2.66356 2.15496,-0.1306 l 0.32651,-14.3664 c -0.17866,-3.39261 2.22488,-3.00369 2.28556,-0.13062 l 0.46039,9.5387 c 0.24802,2.56787 1.68251,2.60241 2.25524,-0.13059 0.23056,-1.37102 0.36632,-3.72661 2.18201,-3.98804 h 2.35087"
         id="path18553-9-3"
         sodipodi:nodetypes="cccccccccccccccccc" /><circle
         style="fill:#646464;fill-opacity:1;stroke:#646464;stroke-width:2;stroke-linecap:round;stroke-linejoin:round;stroke-dasharray:none;stroke-opacity:0.752941;paint-order:stroke fill markers;filter:url(#filter19976-4)"
         id="path7859-7-2-9-6-9-0-2-2-21"
         cx="294.80692"
         cy="450.23193"
         r="16.253731"
         transform="matrix(1.0484667,0,0,1.0484667,-14.288319,-21.821257)" /><circle
         style="fill:#ffffff;fill-opacity:1;stroke:#ffffff;stroke-width:2;stroke-linecap:round;stroke-linejoin:round;stroke-dasharray:none;stroke-opacity:1;paint-order:stroke fill markers"
         id="path7859-7-2-9-6-9-0-2-9"
         cx="294.28046"
         cy="449.2392"
         r="16.253731" /><path
         style="fill:none;fill-opacity:1;stroke:#001095;stroke-width:1.8;stroke-linecap:round;stroke-linejoin:round;stroke-dasharray:none;stroke-opacity:0.837681;paint-order:stroke fill markers;filter:url(#filter18967-4-6)"
         d="m 279.90557,449.6571 h 2.35087 c 2.21653,0.0214 1.83229,2.32018 2.22026,4.11403 0.36676,3.31492 2.31197,3.15356 2.41289,-0.28828 l 0.32979,-8.65808 c 0.35766,-3.38074 2.61383,-2.5644 2.48147,0.0653 l 0.52241,14.0399 c 0.27641,3.04769 2.04708,2.82107 2.28557,-0.0653 l 0.48976,-20.01501 c 0.0358,-2.73453 2.42686,-2.63636 2.48147,-0.0327 l 0.68567,20.24356 c 0.0586,2.94555 2.18283,2.66356 2.15496,-0.1306 l 0.32651,-14.3664 c -0.17866,-3.39261 2.22488,-3.00369 2.28556,-0.13062 l 0.46039,9.5387 c 0.24802,2.56787 1.68251,2.60241 2.25524,-0.13059 0.23056,-1.37102 0.36632,-3.72661 2.18201,-3.98804 h 2.35087"
         id="path18553-98-7"
         sodipodi:nodetypes="cccccccccccccccccc" /><path
         style="fill:none;fill-opacity:1;stroke:#0043de;stroke-width:2;stroke-linecap:round;stroke-linejoin:round;stroke-dasharray:none;stroke-opacity:1;paint-order:stroke fill markers"
         d="m 279.54641,449.21349 h 2.35087 c 2.21652,0.0214 1.83229,2.32018 2.22026,4.11403 0.36676,3.31492 2.31197,3.15356 2.41289,-0.28828 l 0.32979,-8.65808 c 0.35766,-3.38074 2.61383,-2.5644 2.48147,0.0653 l 0.52241,14.0399 c 0.27641,3.04769 2.04708,2.82107 2.28557,-0.0653 l 0.48976,-20.01501 c 0.0358,-2.73453 2.42686,-2.63636 2.48147,-0.0327 l 0.68567,20.24356 c 0.0586,2.94555 2.18283,2.66356 2.15496,-0.1306 l 0.32651,-14.3664 c -0.17866,-3.39261 2.22488,-3.00369 2.28556,-0.13062 l 0.46039,9.5387 c 0.24802,2.56787 1.68251,2.60241 2.25524,-0.13059 0.23056,-1.37102 0.36632,-3.72661 2.18201,-3.98804 h 2.35087"
         id="path18553-9-3-3"
         sodipodi:nodetypes="cccccccccccccccccc" /><rect
         style="fill:#646464;fill-opacity:1;stroke:#97a3a3;stroke-width:0;stroke-linecap:round;stroke-linejoin:round;stroke-dasharray:none;stroke-opacity:1;paint-order:stroke fill markers;filter:url(#filter7361-0-9-6)"
         id="rect7289-1-2-4-9"
         width="144.2032"
         height="22.512394"
         x="36.31319"
         y="496.94174"
         ry="3.5684512"
         inkscape:export-filename="Write_it_aloud3.png"
         inkscape:export-xdpi="96"
         inkscape:export-ydpi="96" /><circle
         style="fill:#646464;fill-opacity:1;stroke:#646464;stroke-width:2;stroke-linecap:round;stroke-linejoin:round;stroke-dasharray:none;stroke-opacity:0.752941;paint-order:stroke fill markers;filter:url(#filter19976-9)"
         id="path7859-7-2-9-6-9-0-2-2-8"
         cx="106.01115"
         cy="508.91537"
         r="16.253731" /><text
         xml:space="preserve"
         style="font-size:9.02826px;font-family:Consolas;-inkscape-font-specification:Consolas;letter-spacing:1.4703px;word-spacing:-1.00096px;fill:#0043de;fill-opacity:1;stroke:#0043de;stroke-width:0.8;stroke-linecap:round;stroke-linejoin:round;stroke-dasharray:none;stroke-opacity:1;paint-order:stroke fill markers"
         x="281.30426"
         y="438.36957"
         id="text1956-4-0-6-0-9-6-1-9-8-97"
         transform="matrix(0.88870984,-0.00973877,-0.47121896,1.1303904,0,0)"><tspan
           sodipodi:role="line"
           id="tspan1954-1-5-8-1-3-4-5-8-1-5"
           style="font-style:normal;font-variant:normal;font-weight:normal;font-stretch:normal;font-size:9.02826px;font-family:'Bradley Hand ITC';-inkscape-font-specification:'Bradley Hand ITC';fill:#0043de;fill-opacity:1;stroke:#0043de;stroke-width:0.8;stroke-dasharray:none;stroke-opacity:1"
           x="281.30426"
           y="438.36957"
           dx="0"><tspan
   style="font-size:10.4819px;stroke-width:0.8;stroke-dasharray:none"
   id="tspan22693">W</tspan>rite  it</tspan></text><rect
         style="fill:#ffffff;fill-opacity:1;stroke:#a3a3a3;stroke-width:0.2;stroke-linecap:round;stroke-linejoin:round;stroke-dasharray:none;stroke-opacity:1;paint-order:stroke fill markers"
         id="rect7289-1-8-3-9-5"
         width="144.2032"
         height="22.512394"
         x="35.218277"
         y="496.15753"
         ry="3.5684512" /><text
         xml:space="preserve"
         style="font-size:22.7341px;font-family:Consolas;-inkscape-font-specification:Consolas;letter-spacing:13.2292px;fill:#3a3a3a;fill-opacity:1;stroke:#313131;stroke-width:2.2;stroke-linecap:round;stroke-linejoin:round;stroke-dasharray:none;stroke-opacity:1;paint-order:stroke fill markers"
         x="42.906387"
         y="503.75018"
         id="text1956-2-9-7-1-6-53-7-6-0"
         transform="scale(0.97659779,1.023963)"><tspan
           sodipodi:role="line"
           id="tspan1954-2-7-4-9-4-63-5-2-4"
           style="font-style:normal;font-variant:normal;font-weight:normal;font-stretch:normal;font-size:22.7341px;font-family:'Bookman Old Style';-inkscape-font-specification:'Bookman Old Style';fill:#3a3a3a;fill-opacity:1;stroke:#313131;stroke-width:2.2;stroke-linecap:round;stroke-linejoin:round;stroke-dasharray:none;stroke-opacity:1"
           x="42.906387"
           y="503.75018">ALOUD</tspan></text><circle
         style="fill:#ffffff;fill-opacity:1;stroke:#ffffff;stroke-width:2;stroke-linecap:round;stroke-linejoin:round;stroke-dasharray:none;stroke-opacity:1;paint-order:stroke fill markers"
         id="path7859-7-2-9-6-9-0-2-0"
         cx="105.48467"
         cy="507.92264"
         r="16.253731" /><path
         style="fill:none;fill-opacity:1;stroke:#001095;stroke-width:1.8;stroke-linecap:round;stroke-linejoin:round;stroke-dasharray:none;stroke-opacity:0.837681;paint-order:stroke fill markers;filter:url(#filter18967-4-1)"
         d="m 91.109796,508.34055 h 2.35087 c 2.21653,0.0214 1.83229,2.32018 2.22026,4.11403 0.36676,3.31492 2.31197,3.15356 2.41289,-0.28828 l 0.32979,-8.65808 c 0.35766,-3.38074 2.613834,-2.5644 2.481474,0.0653 l 0.52241,14.0399 c 0.27641,3.04769 2.04708,2.82107 2.28557,-0.0653 l 0.48976,-20.01501 c 0.0358,-2.73453 2.42686,-2.63636 2.48147,-0.0327 l 0.68567,20.24356 c 0.0586,2.94555 2.18283,2.66356 2.15496,-0.1306 l 0.32651,-14.3664 c -0.17866,-3.39261 2.22488,-3.00369 2.28556,-0.13062 l 0.46039,9.5387 c 0.24802,2.56787 1.68251,2.60241 2.25524,-0.13059 0.23056,-1.37102 0.36632,-3.72661 2.18201,-3.98804 h 2.35087"
         id="path18553-98-9"
         sodipodi:nodetypes="cccccccccccccccccc" /><path
         style="fill:none;fill-opacity:1;stroke:#0043de;stroke-width:2;stroke-linecap:round;stroke-linejoin:round;stroke-dasharray:none;stroke-opacity:1;paint-order:stroke fill markers"
         d="m 90.750636,507.89694 h 2.35087 c 2.21652,0.0214 1.83229,2.32018 2.22026,4.11403 0.36676,3.31492 2.31197,3.15356 2.41289,-0.28828 l 0.32979,-8.65808 c 0.35766,-3.38074 2.613834,-2.5644 2.481474,0.0653 l 0.52241,14.0399 c 0.27641,3.04769 2.04708,2.82107 2.28557,-0.0653 l 0.48976,-20.01501 c 0.0358,-2.73453 2.42686,-2.63636 2.48147,-0.0327 l 0.68567,20.24356 c 0.0586,2.94555 2.18283,2.66356 2.15496,-0.1306 l 0.32651,-14.3664 c -0.17866,-3.39261 2.22488,-3.00369 2.28556,-0.13062 l 0.46039,9.5387 c 0.24802,2.56787 1.68251,2.60241 2.25524,-0.13059 0.23056,-1.37102 0.36632,-3.72661 2.18201,-3.98804 h 2.35087"
         id="path18553-9-3-7"
         sodipodi:nodetypes="cccccccccccccccccc" /><rect
         style="fill:#646464;fill-opacity:1;stroke:#97a3a3;stroke-width:0;stroke-linecap:round;stroke-linejoin:round;stroke-dasharray:none;stroke-opacity:1;paint-order:stroke fill markers;filter:url(#filter7361-0)"
         id="rect7289-1-2"
         width="144.2032"
         height="22.512394"
         x="32.29985"
         y="372.89221"
         ry="3.5684512" /><rect
         style="fill:#ffffff;fill-opacity:1;stroke:#a3a3a3;stroke-width:0.2;stroke-linecap:round;stroke-linejoin:round;stroke-dasharray:none;stroke-opacity:1;paint-order:stroke fill markers"
         id="rect7289-1-8-3"
         width="144.2032"
         height="22.512394"
         x="31.646851"
         y="371.52551"
         ry="3.5684512" /><text
         xml:space="preserve"
         style="font-size:22.7341px;font-family:Consolas;-inkscape-font-specification:Consolas;letter-spacing:13.2292px;fill:#323232;fill-opacity:1;stroke:#000001;stroke-width:1.2;stroke-linecap:round;stroke-linejoin:round;stroke-dasharray:none;stroke-opacity:1;paint-order:stroke fill markers"
         x="39.249374"
         y="382.03482"
         id="text1956-2-9-7-1-6-53-7"
         transform="scale(0.97659779,1.023963)"><tspan
           sodipodi:role="line"
           id="tspan1954-2-7-4-9-4-63-5"
           style="font-style:normal;font-variant:normal;font-weight:normal;font-stretch:normal;font-size:22.7341px;font-family:'Arial Rounded MT Bold';-inkscape-font-specification:'Arial Rounded MT Bold, ';fill:#323232;fill-opacity:1;stroke:#000001;stroke-width:1.2;stroke-dasharray:none;stroke-opacity:1"
           x="39.249374"
           y="382.03482">ALOUD</tspan></text><circle
         style="fill:#00c4ff;fill-opacity:1;stroke:#0014be;stroke-width:3;stroke-linecap:round;stroke-linejoin:round;stroke-dasharray:none;stroke-opacity:1;paint-order:stroke fill markers"
         id="path7859-7-2-9-6-9-0"
         cx="101.91325"
         cy="383.29062"
         r="16.253731" /><path
         style="fill:none;fill-opacity:1;stroke:#001095;stroke-width:1.8;stroke-linecap:round;stroke-linejoin:round;stroke-dasharray:none;stroke-opacity:0.837681;paint-order:stroke fill markers;filter:url(#filter18967)"
         d="m 87.538375,383.70852 h 2.350865 c 2.216528,0.0214 1.832296,2.32018 2.220263,4.11403 0.366758,3.31492 2.311974,3.15356 2.412888,-0.28828 l 0.32979,-8.65808 c 0.357664,-3.38074 2.613836,-2.5644 2.481469,0.0653 l 0.522415,14.0399 c 0.276409,3.04769 2.04708,2.82107 2.285575,-0.0653 l 0.48976,-20.01501 c 0.0358,-2.73453 2.42686,-2.63636 2.48147,-0.0327 l 0.68567,20.24356 c 0.0586,2.94555 2.18283,2.66356 2.15496,-0.1306 l 0.32651,-14.3664 c -0.17866,-3.39261 2.22488,-3.00369 2.28556,-0.13062 l 0.46039,9.5387 c 0.24802,2.56787 1.68251,2.60241 2.25524,-0.13059 0.23056,-1.37102 0.36632,-3.72661 2.18201,-3.98804 h 2.35087"
         id="path18553"
         sodipodi:nodetypes="cccccccccccccccccc" /><path
         style="fill:none;fill-opacity:1;stroke:#0014be;stroke-width:2;stroke-linecap:round;stroke-linejoin:round;stroke-dasharray:none;stroke-opacity:1;paint-order:stroke fill markers"
         d="m 87.179214,383.26491 h 2.350865 c 2.216528,0.0214 1.832296,2.32018 2.220263,4.11403 0.366758,3.31492 2.311974,3.15356 2.412888,-0.28828 l 0.32979,-8.65808 c 0.357664,-3.38074 2.613836,-2.5644 2.481469,0.0653 l 0.522415,14.0399 c 0.276409,3.04769 2.047081,2.82107 2.285571,-0.0653 l 0.489765,-20.01501 c 0.0358,-2.73453 2.42686,-2.63636 2.48147,-0.0327 l 0.68567,20.24356 c 0.0586,2.94555 2.18283,2.66356 2.15496,-0.1306 l 0.32651,-14.3664 c -0.17866,-3.39261 2.22488,-3.00369 2.28556,-0.13062 l 0.46039,9.5387 c 0.24802,2.56787 1.68251,2.60241 2.25524,-0.13059 0.23056,-1.37102 0.36632,-3.72661 2.18201,-3.98804 h 2.35087"
         id="path18553-9"
         sodipodi:nodetypes="cccccccccccccccccc" /><text
         xml:space="preserve"
         style="font-size:12.693px;font-family:Consolas;-inkscape-font-specification:Consolas;letter-spacing:2.06713px;word-spacing:-1.40728px;fill:#0043de;fill-opacity:1;stroke:#0043de;stroke-width:0.5;stroke-linecap:round;stroke-linejoin:round;stroke-dasharray:none;stroke-opacity:1;paint-order:stroke fill markers"
         x="85.223839"
         y="344.72379"
         id="text1956-4-0-6-0-9-6-1-9-8-9"
         transform="matrix(0.93961776,0.00853276,-0.11739349,1.0631965,0,0)"><tspan
           sodipodi:role="line"
           id="tspan1954-1-5-8-1-3-4-5-8-1-8"
           style="font-style:normal;font-variant:normal;font-weight:normal;font-stretch:normal;font-size:12.693px;font-family:'Freestyle Script';-inkscape-font-specification:'Freestyle Script';fill:#0043de;fill-opacity:1;stroke:#0043de;stroke-width:0.5;stroke-dasharray:none;stroke-opacity:1"
           x="85.223839"
           y="344.72379"
           dx="0">Write  it</tspan></text></g></g></svg>
